<svg viewBox="0 0 38.462 53.847">
    <g stroke-linecap="round" fill-rule="evenodd" font-size="9pt" stroke="#000" stroke-width="0.25mm" fill="#000">
        <path d="M 31.118 40.659 A 3.853 3.853 0 0 0 30.77 42.308 A 4.644 4.644 0 0 0 30.77 42.358 A 3.707 3.707 0 0 0 31.885 45.039 A 3.794 3.794 0 0 0 32.967 45.806 A 3.853 3.853 0 0 0 34.616 46.154 A 4.644 4.644 0 0 0 34.666 46.154 A 3.707 3.707 0 0 0 37.346 45.039 A 3.794 3.794 0 0 0 38.114 43.957 A 3.853 3.853 0 0 0 38.462 42.308 A 4.644 4.644 0 0 0 38.462 42.258 A 3.707 3.707 0 0 0 37.346 39.577 A 3.794 3.794 0 0 0 36.264 38.81 A 3.853 3.853 0 0 0 34.616 38.462 A 4.644 4.644 0 0 0 34.666 38.462 A 3.707 3.707 0 0 0 37.346 37.346 A 3.794 3.794 0 0 0 38.114 36.264 A 3.853 3.853 0 0 0 38.462 34.616 A 4.644 4.644 0 0 0 38.462 34.565 A 3.707 3.707 0 0 0 37.346 31.885 A 3.794 3.794 0 0 0 36.264 31.118 A 3.853 3.853 0 0 0 34.616 30.77 A 4.644 4.644 0 0 0 34.666 30.769 A 3.707 3.707 0 0 0 37.346 29.654 A 3.794 3.794 0 0 0 38.114 28.572 A 3.853 3.853 0 0 0 38.462 26.923 A 4.644 4.644 0 0 0 38.462 26.873 A 3.707 3.707 0 0 0 37.346 24.193 A 3.794 3.794 0 0 0 36.264 23.425 A 3.853 3.853 0 0 0 34.616 23.077 A 4.644 4.644 0 0 0 34.565 23.077 A 3.707 3.707 0 0 0 31.885 24.193 A 3.794 3.794 0 0 0 31.118 25.275 A 3.853 3.853 0 0 0 30.77 26.923 A 4.644 4.644 0 0 0 30.769 26.873 A 3.707 3.707 0 0 0 29.654 24.193 A 3.794 3.794 0 0 0 28.572 23.425 A 3.853 3.853 0 0 0 26.923 23.077 A 4.644 4.644 0 0 0 26.873 23.077 A 3.707 3.707 0 0 0 24.193 24.193 A 3.794 3.794 0 0 0 23.425 25.275 A 3.853 3.853 0 0 0 23.077 26.923 A 4.644 4.644 0 0 0 23.077 26.873 A 3.707 3.707 0 0 0 21.962 24.193 A 3.794 3.794 0 0 0 20.88 23.425 A 3.853 3.853 0 0 0 19.231 23.077 A 4.644 4.644 0 0 0 19.181 23.077 A 3.707 3.707 0 0 0 16.5 24.193 A 3.794 3.794 0 0 0 15.733 25.275 A 3.853 3.853 0 0 0 15.385 26.923 A 4.644 4.644 0 0 0 15.385 26.974 A 3.707 3.707 0 0 0 16.5 29.654 A 3.794 3.794 0 0 0 17.582 30.421 A 3.853 3.853 0 0 0 19.231 30.77 A 4.644 4.644 0 0 0 19.281 30.769 A 3.707 3.707 0 0 0 21.962 29.654 A 3.794 3.794 0 0 0 22.729 28.572 A 3.853 3.853 0 0 0 23.077 26.923 A 4.644 4.644 0 0 0 23.077 26.974 A 3.707 3.707 0 0 0 24.193 29.654 A 3.794 3.794 0 0 0 25.275 30.421 A 3.853 3.853 0 0 0 26.923 30.77 A 4.644 4.644 0 0 0 26.974 30.769 A 3.707 3.707 0 0 0 29.654 29.654 A 3.794 3.794 0 0 0 30.421 28.572 A 3.853 3.853 0 0 0 30.77 26.923 A 4.644 4.644 0 0 0 30.77 26.974 A 3.707 3.707 0 0 0 31.885 29.654 A 3.794 3.794 0 0 0 32.967 30.421 A 3.853 3.853 0 0 0 34.616 30.77 A 4.644 4.644 0 0 0 34.565 30.77 A 3.707 3.707 0 0 0 31.885 31.885 A 3.794 3.794 0 0 0 31.118 32.967 A 3.853 3.853 0 0 0 30.77 34.616 A 4.644 4.644 0 0 0 30.77 34.666 A 3.707 3.707 0 0 0 31.885 37.346 A 3.794 3.794 0 0 0 32.967 38.114 A 3.853 3.853 0 0 0 34.616 38.462 A 4.644 4.644 0 0 0 34.565 38.462 A 3.707 3.707 0 0 0 31.885 39.577 A 3.794 3.794 0 0 0 31.118 40.659 Z M 0.348 40.659 A 3.853 3.853 0 0 0 0 42.308 A 4.644 4.644 0 0 0 0.001 42.358 A 3.707 3.707 0 0 0 1.116 45.039 A 3.794 3.794 0 0 0 2.198 45.806 A 3.853 3.853 0 0 0 3.846 46.154 A 4.644 4.644 0 0 0 3.897 46.154 A 3.707 3.707 0 0 0 6.577 45.039 A 3.794 3.794 0 0 0 7.345 43.957 A 3.853 3.853 0 0 0 7.693 42.308 A 4.644 4.644 0 0 0 7.692 42.258 A 3.707 3.707 0 0 0 6.577 39.577 A 3.794 3.794 0 0 0 5.495 38.81 A 3.853 3.853 0 0 0 3.846 38.462 A 4.644 4.644 0 0 0 3.897 38.462 A 3.707 3.707 0 0 0 6.577 37.346 A 3.794 3.794 0 0 0 7.345 36.264 A 3.853 3.853 0 0 0 7.693 34.616 A 4.644 4.644 0 0 0 7.692 34.565 A 3.707 3.707 0 0 0 6.577 31.885 A 3.794 3.794 0 0 0 5.495 31.118 A 3.853 3.853 0 0 0 3.846 30.77 A 4.644 4.644 0 0 0 3.897 30.769 A 3.707 3.707 0 0 0 6.577 29.654 A 3.794 3.794 0 0 0 7.345 28.572 A 3.853 3.853 0 0 0 7.693 26.923 A 4.644 4.644 0 0 0 7.692 26.873 A 3.707 3.707 0 0 0 6.577 24.193 A 3.794 3.794 0 0 0 5.495 23.425 A 3.853 3.853 0 0 0 3.846 23.077 A 4.644 4.644 0 0 0 3.897 23.077 A 3.707 3.707 0 0 0 6.577 21.962 A 3.794 3.794 0 0 0 7.345 20.88 A 3.853 3.853 0 0 0 7.693 19.231 A 4.644 4.644 0 0 0 7.692 19.181 A 3.707 3.707 0 0 0 6.577 16.5 A 3.794 3.794 0 0 0 5.495 15.733 A 3.853 3.853 0 0 0 3.846 15.385 A 4.644 4.644 0 0 0 3.897 15.385 A 3.707 3.707 0 0 0 6.577 14.27 A 3.794 3.794 0 0 0 7.345 13.187 A 3.853 3.853 0 0 0 7.693 11.539 A 4.644 4.644 0 0 0 7.692 11.488 A 3.707 3.707 0 0 0 6.577 8.808 A 3.794 3.794 0 0 0 5.495 8.041 A 3.853 3.853 0 0 0 3.846 7.693 A 4.644 4.644 0 0 0 3.796 7.693 A 3.707 3.707 0 0 0 1.116 8.808 A 3.794 3.794 0 0 0 0.348 9.89 A 3.853 3.853 0 0 0 0 11.539 A 4.644 4.644 0 0 0 0.001 11.589 A 3.707 3.707 0 0 0 1.116 14.27 A 3.794 3.794 0 0 0 2.198 15.037 A 3.853 3.853 0 0 0 3.846 15.385 A 4.644 4.644 0 0 0 3.796 15.385 A 3.707 3.707 0 0 0 1.116 16.5 A 3.794 3.794 0 0 0 0.348 17.582 A 3.853 3.853 0 0 0 0 19.231 A 4.644 4.644 0 0 0 0.001 19.281 A 3.707 3.707 0 0 0 1.116 21.962 A 3.794 3.794 0 0 0 2.198 22.729 A 3.853 3.853 0 0 0 3.846 23.077 A 4.644 4.644 0 0 0 3.796 23.077 A 3.707 3.707 0 0 0 1.116 24.193 A 3.794 3.794 0 0 0 0.348 25.275 A 3.853 3.853 0 0 0 0 26.923 A 4.644 4.644 0 0 0 0.001 26.974 A 3.707 3.707 0 0 0 1.116 29.654 A 3.794 3.794 0 0 0 2.198 30.421 A 3.853 3.853 0 0 0 3.846 30.77 A 4.644 4.644 0 0 0 3.796 30.77 A 3.707 3.707 0 0 0 1.116 31.885 A 3.794 3.794 0 0 0 0.348 32.967 A 3.853 3.853 0 0 0 0 34.616 A 4.644 4.644 0 0 0 0.001 34.666 A 3.707 3.707 0 0 0 1.116 37.346 A 3.794 3.794 0 0 0 2.198 38.114 A 3.853 3.853 0 0 0 3.846 38.462 A 4.644 4.644 0 0 0 3.796 38.462 A 3.707 3.707 0 0 0 1.116 39.577 A 3.794 3.794 0 0 0 0.348 40.659 Z M 8.041 48.352 A 3.853 3.853 0 0 0 7.693 50 A 4.644 4.644 0 0 0 7.693 50.051 A 3.707 3.707 0 0 0 8.808 52.731 A 3.794 3.794 0 0 0 9.89 53.498 A 3.853 3.853 0 0 0 11.539 53.846 A 4.644 4.644 0 0 0 11.589 53.846 A 3.707 3.707 0 0 0 14.27 52.731 A 3.794 3.794 0 0 0 15.037 51.649 A 3.853 3.853 0 0 0 15.385 50 A 4.644 4.644 0 0 0 15.385 50.051 A 3.707 3.707 0 0 0 16.5 52.731 A 3.794 3.794 0 0 0 17.582 53.498 A 3.853 3.853 0 0 0 19.231 53.846 A 4.644 4.644 0 0 0 19.281 53.846 A 3.707 3.707 0 0 0 21.962 52.731 A 3.794 3.794 0 0 0 22.729 51.649 A 3.853 3.853 0 0 0 23.077 50 A 4.644 4.644 0 0 0 23.077 50.051 A 3.707 3.707 0 0 0 24.193 52.731 A 3.794 3.794 0 0 0 25.275 53.498 A 3.853 3.853 0 0 0 26.923 53.846 A 4.644 4.644 0 0 0 26.974 53.846 A 3.707 3.707 0 0 0 29.654 52.731 A 3.794 3.794 0 0 0 30.421 51.649 A 3.853 3.853 0 0 0 30.77 50 A 4.644 4.644 0 0 0 30.769 49.95 A 3.707 3.707 0 0 0 29.654 47.27 A 3.794 3.794 0 0 0 28.572 46.502 A 3.853 3.853 0 0 0 26.923 46.154 A 4.644 4.644 0 0 0 26.873 46.154 A 3.707 3.707 0 0 0 24.193 47.27 A 3.794 3.794 0 0 0 23.425 48.352 A 3.853 3.853 0 0 0 23.077 50 A 4.644 4.644 0 0 0 23.077 49.95 A 3.707 3.707 0 0 0 21.962 47.27 A 3.794 3.794 0 0 0 20.88 46.502 A 3.853 3.853 0 0 0 19.231 46.154 A 4.644 4.644 0 0 0 19.181 46.154 A 3.707 3.707 0 0 0 16.5 47.27 A 3.794 3.794 0 0 0 15.733 48.352 A 3.853 3.853 0 0 0 15.385 50 A 4.644 4.644 0 0 0 15.385 49.95 A 3.707 3.707 0 0 0 14.27 47.27 A 3.794 3.794 0 0 0 13.187 46.502 A 3.853 3.853 0 0 0 11.539 46.154 A 4.644 4.644 0 0 0 11.488 46.154 A 3.707 3.707 0 0 0 8.808 47.27 A 3.794 3.794 0 0 0 8.041 48.352 Z M 8.041 2.198 A 3.853 3.853 0 0 0 7.693 3.846 A 4.644 4.644 0 0 0 7.693 3.897 A 3.707 3.707 0 0 0 8.808 6.577 A 3.794 3.794 0 0 0 9.89 7.345 A 3.853 3.853 0 0 0 11.539 7.693 A 4.644 4.644 0 0 0 11.589 7.692 A 3.707 3.707 0 0 0 14.27 6.577 A 3.794 3.794 0 0 0 15.037 5.495 A 3.853 3.853 0 0 0 15.385 3.846 A 4.644 4.644 0 0 0 15.385 3.897 A 3.707 3.707 0 0 0 16.5 6.577 A 3.794 3.794 0 0 0 17.582 7.345 A 3.853 3.853 0 0 0 19.231 7.693 A 4.644 4.644 0 0 0 19.281 7.692 A 3.707 3.707 0 0 0 21.962 6.577 A 3.794 3.794 0 0 0 22.729 5.495 A 3.853 3.853 0 0 0 23.077 3.846 A 4.644 4.644 0 0 0 23.077 3.897 A 3.707 3.707 0 0 0 24.193 6.577 A 3.794 3.794 0 0 0 25.275 7.345 A 3.853 3.853 0 0 0 26.923 7.693 A 4.644 4.644 0 0 0 26.974 7.692 A 3.707 3.707 0 0 0 29.654 6.577 A 3.794 3.794 0 0 0 30.421 5.495 A 3.853 3.853 0 0 0 30.77 3.846 A 4.644 4.644 0 0 0 30.769 3.796 A 3.707 3.707 0 0 0 29.654 1.116 A 3.794 3.794 0 0 0 28.572 0.348 A 3.853 3.853 0 0 0 26.923 0 A 4.644 4.644 0 0 0 26.873 0.001 A 3.707 3.707 0 0 0 24.193 1.116 A 3.794 3.794 0 0 0 23.425 2.198 A 3.853 3.853 0 0 0 23.077 3.846 A 4.644 4.644 0 0 0 23.077 3.796 A 3.707 3.707 0 0 0 21.962 1.116 A 3.794 3.794 0 0 0 20.88 0.348 A 3.853 3.853 0 0 0 19.231 0 A 4.644 4.644 0 0 0 19.181 0.001 A 3.707 3.707 0 0 0 16.5 1.116 A 3.794 3.794 0 0 0 15.733 2.198 A 3.853 3.853 0 0 0 15.385 3.846 A 4.644 4.644 0 0 0 15.385 3.796 A 3.707 3.707 0 0 0 14.27 1.116 A 3.794 3.794 0 0 0 13.187 0.348 A 3.853 3.853 0 0 0 11.539 0 A 4.644 4.644 0 0 0 11.488 0.001 A 3.707 3.707 0 0 0 8.808 1.116 A 3.794 3.794 0 0 0 8.041 2.198 Z M 31.118 9.89 A 3.853 3.853 0 0 0 30.77 11.539 A 4.644 4.644 0 0 0 30.77 11.589 A 3.707 3.707 0 0 0 31.885 14.27 A 3.794 3.794 0 0 0 32.967 15.037 A 3.853 3.853 0 0 0 34.616 15.385 A 4.644 4.644 0 0 0 34.666 15.385 A 3.707 3.707 0 0 0 37.346 14.27 A 3.794 3.794 0 0 0 38.114 13.187 A 3.853 3.853 0 0 0 38.462 11.539 A 4.644 4.644 0 0 0 38.462 11.488 A 3.707 3.707 0 0 0 37.346 8.808 A 3.794 3.794 0 0 0 36.264 8.041 A 3.853 3.853 0 0 0 34.616 7.693 A 4.644 4.644 0 0 0 34.565 7.693 A 3.707 3.707 0 0 0 31.885 8.808 A 3.794 3.794 0 0 0 31.118 9.89 Z"/>
    </g>
</svg>