<svg viewBox="0 0 928 130" fill="#000000">
    <g transform="translate(0.000000,130.000000) scale(0.100000,-0.100000)">
        <path d="M215 1275 c-56 -55 -15 -155 63 -155 27 0 42 8 68 36 21 22 34 30 34
        20 0 -22 49 -56 82 -56 41 0 67 17 83 53 8 18 14 25 15 15 0 -25 57 -68 90
        -68 16 0 42 11 59 26 64 53 26 154 -57 154 -41 0 -60 -11 -86 -50 -12 -18 -16
        -20 -16 -8 0 25 -48 58 -85 58 -37 0 -85 -33 -85 -58 -1 -14 -3 -14 -15 3 -31
        44 -49 55 -87 55 -28 0 -46 -7 -63 -25z"/>
        <path d="M4682 1284 c-52 -36 -47 -119 8 -153 l28 -17 -28 -12 c-32 -14 -55
        -66 -44 -98 10 -28 45 -64 63 -64 10 -1 4 -7 -12 -16 -16 -9 -35 -30 -42 -47
        -8 -18 -14 -25 -15 -16 0 9 -12 28 -26 43 -58 57 -154 17 -154 -64 0 -81 96
        -121 154 -64 14 15 26 34 26 43 1 9 7 2 15 -16 7 -17 26 -38 42 -47 16 -9 22
        -15 12 -16 -18 0 -53 -36 -63 -64 -10 -29 13 -85 41 -100 l26 -13 -26 -17
        c-33 -23 -51 -74 -38 -110 6 -14 25 -35 43 -46 18 -11 26 -20 17 -20 -18 0
        -53 -36 -63 -64 -11 -31 13 -85 44 -101 53 -28 101 -12 129 43 22 42 -9 107
        -59 125 -13 5 -13 6 1 6 31 2 64 50 64 93 0 34 -6 45 -34 68 -31 27 -32 28
        -12 35 22 7 51 52 51 79 0 30 -24 66 -51 78 l-27 12 30 19 c17 10 33 27 35 38
        5 18 8 17 35 -15 24 -30 36 -36 67 -36 55 0 91 36 91 90 0 54 -36 90 -91 90
        -31 0 -43 -6 -67 -36 -27 -32 -30 -33 -35 -15 -2 11 -19 29 -37 39 l-31 20 25
        6 c26 6 56 51 56 81 0 30 -30 75 -56 81 l-25 6 31 19 c36 22 53 61 45 101 -13
        58 -93 87 -143 52z"/>
        <path d="M5603 1276 c-22 -19 -28 -32 -28 -66 0 -104 142 -126 175 -26 29 88
        -75 154 -147 92z"/>
        <path d="M60 1109 c-32 -13 -59 -48 -60 -77 0 -36 28 -81 56 -88 l25 -6 -30
        -19 c-57 -34 -67 -89 -25 -138 14 -17 33 -31 42 -31 10 -1 3 -7 -13 -14 -32
        -14 -55 -51 -55 -90 0 -24 41 -76 60 -76 6 0 -5 -15 -24 -34 -26 -24 -36 -42
        -36 -64 0 -35 42 -92 68 -92 10 0 4 -7 -14 -16 -59 -29 -71 -98 -25 -145 31
        -31 64 -36 104 -18 68 31 64 143 -5 165 -18 5 -17 8 10 24 61 37 60 125 -1
        157 -29 14 -30 17 -12 23 58 22 76 101 34 146 -12 13 -30 24 -38 24 -9 0 -3 8
        15 19 63 38 63 120 1 160 -19 12 -25 21 -16 21 28 0 61 46 61 85 0 63 -64 107
        -122 84z"/>
        <path d="M793 1104 c-73 -36 -60 -139 21 -168 47 -17 116 36 116 89 0 32 -30
        73 -61 84 -40 14 -37 14 -76 -5z"/>
        <path d="M1329 901 c-37 -37 -38 -79 -3 -120 43 -52 122 -40 149 22 9 20 14
        25 15 14 0 -31 49 -67 91 -67 31 0 43 6 68 37 21 25 31 32 31 21 0 -26 49 -58
        87 -58 38 0 83 36 83 67 0 12 6 7 16 -14 9 -17 30 -38 47 -47 21 -10 26 -16
        14 -16 -31 0 -67 -45 -67 -83 0 -38 32 -87 58 -87 11 0 4 -10 -21 -31 -31 -25
        -37 -37 -37 -68 0 -42 36 -91 67 -91 11 -1 6 -6 -14 -15 -17 -7 -38 -26 -47
        -42 -9 -16 -15 -22 -16 -12 0 30 -44 59 -87 59 -34 0 -46 -6 -67 -31 -38 -45
        -32 -91 18 -131 41 -34 110 -14 132 37 7 17 13 23 14 13 0 -9 17 -30 37 -47
        23 -19 31 -31 22 -31 -26 0 -59 -44 -59 -79 0 -45 16 -70 56 -87 29 -12 39
        -12 68 0 40 17 56 42 56 89 0 35 -33 77 -60 77 -8 0 2 14 23 31 30 25 37 37
        37 65 0 47 -15 73 -53 89 -20 9 -25 14 -14 15 31 0 67 49 67 91 0 31 -6 43
        -37 68 -25 21 -32 31 -21 31 24 0 58 48 58 82 0 41 -17 67 -53 83 -18 8 -25
        14 -16 15 9 0 28 12 43 26 57 58 17 154 -64 154 -40 0 -90 -38 -90 -69 -1 -9
        -7 -2 -15 16 -16 36 -42 53 -83 53 -34 0 -82 -34 -82 -58 0 -11 -10 -4 -31 21
        -25 31 -37 37 -68 37 -42 0 -91 -36 -92 -67 0 -13 -3 -11 -10 7 -25 64 -101
        80 -150 31z"/>
        <path d="M2256 899 c-15 -17 -26 -43 -26 -59 0 -33 43 -90 68 -90 10 -1 3 -7
        -15 -15 -36 -16 -53 -42 -53 -83 0 -33 34 -82 56 -82 10 0 2 -13 -20 -34 -46
        -43 -49 -90 -10 -130 15 -14 34 -26 43 -26 9 0 4 -7 -13 -15 -68 -36 -76 -99
        -20 -151 22 -21 30 -34 20 -34 -8 0 -24 -12 -35 -26 -59 -75 17 -176 104 -140
        64 27 77 106 24 150 l-31 26 31 26 c25 21 31 33 31 65 0 44 -34 89 -67 89 -11
        1 -6 6 14 15 37 16 53 42 53 87 -1 38 -14 59 -50 78 -18 10 -21 15 -10 18 61
        19 81 102 35 147 -13 14 -32 25 -42 25 -11 0 -5 7 16 17 19 9 39 30 47 47 8
        20 13 24 14 13 0 -33 45 -67 89 -67 32 0 44 6 65 31 35 41 34 83 -3 120 -49
        49 -125 33 -150 -31 -7 -18 -10 -20 -10 -7 -1 31 -50 67 -92 67 -29 0 -43 -6
        -63 -31z"/>
        <path d="M2816 905 c-20 -18 -26 -34 -26 -65 0 -85 100 -124 154 -59 15 17 26
        43 26 59 0 16 -11 42 -26 59 -34 40 -88 43 -128 6z"/>
        <path d="M3556 899 c-15 -17 -26 -43 -26 -59 0 -16 11 -42 26 -59 20 -25 34
        -31 63 -31 42 0 91 36 91 67 1 11 6 6 15 -14 27 -62 106 -74 149 -22 l26 31
        26 -31 c44 -53 123 -40 150 24 39 93 -75 168 -147 96 l-29 -29 -29 29 c-49 49
        -125 33 -150 -31 -7 -18 -10 -20 -10 -7 -1 31 -50 67 -92 67 -29 0 -43 -6 -63
        -31z"/>
        <path d="M5416 905 c-20 -18 -26 -34 -26 -65 0 -54 36 -90 91 -90 31 0 43 6
        67 36 27 32 30 33 35 15 2 -11 18 -28 35 -38 l30 -19 -27 -12 c-27 -12 -51
        -48 -51 -78 0 -27 29 -72 51 -79 20 -7 19 -8 -12 -35 -28 -23 -34 -34 -34 -68
        0 -42 23 -77 60 -93 16 -6 16 -8 3 -8 -21 -1 -68 -57 -68 -81 0 -31 21 -69 48
        -86 l25 -17 -26 -13 c-14 -8 -29 -23 -32 -35 -7 -20 -8 -19 -33 10 -39 46 -88
        52 -130 16 -54 -45 -42 -124 23 -151 41 -17 86 -4 110 32 l15 24 28 -31 c22
        -24 36 -31 66 -31 40 0 86 32 86 61 0 9 8 3 19 -15 26 -42 72 -58 116 -40 92
        39 65 171 -35 171 -42 0 -90 -34 -90 -64 -1 -9 -7 -2 -15 16 -7 17 -23 34 -34
        38 -27 8 -27 22 0 30 26 8 52 69 43 98 -9 30 -44 67 -63 67 -9 0 -1 9 17 20
        18 11 37 32 43 46 13 36 -5 87 -38 110 l-26 17 26 13 c28 15 51 71 41 100 -10
        28 -45 64 -63 64 -9 0 -3 8 15 19 42 26 58 72 40 116 -16 38 -42 55 -84 55
        -34 0 -82 -34 -82 -58 0 -11 -10 -4 -31 21 -25 31 -37 37 -68 37 -27 0 -46 -7
        -65 -25z"/>
        <path d="M6156 899 c-15 -17 -26 -43 -26 -59 0 -33 43 -90 68 -90 10 -1 3 -7
        -15 -15 -36 -16 -53 -42 -53 -83 0 -33 34 -82 56 -82 10 0 2 -13 -20 -34 -46
        -43 -49 -90 -10 -130 15 -14 34 -26 43 -26 9 0 4 -7 -13 -15 -68 -36 -76 -99
        -20 -151 22 -21 30 -34 20 -34 -8 0 -24 -12 -35 -26 -59 -75 17 -176 104 -140
        64 27 77 106 24 150 l-31 26 31 26 c25 21 31 33 31 65 0 44 -34 89 -67 89 -11
        1 -6 6 14 15 37 16 53 42 53 87 -1 38 -14 59 -50 78 -18 10 -21 15 -10 18 61
        19 81 102 35 147 -13 14 -32 25 -42 25 -11 0 -5 7 16 17 19 9 39 30 47 47 8
        20 13 24 14 13 0 -33 45 -67 89 -67 32 0 44 6 65 31 35 41 34 83 -3 120 -49
        49 -125 33 -150 -31 -7 -18 -10 -20 -10 -7 -1 31 -50 67 -92 67 -29 0 -43 -6
        -63 -31z"/>
        <path d="M6716 905 c-20 -18 -26 -34 -26 -65 0 -85 100 -124 154 -59 15 17 26
        43 26 59 0 16 -11 42 -26 59 -34 40 -88 43 -128 6z"/>
        <path d="M7456 899 c-15 -17 -26 -43 -26 -59 0 -16 11 -42 26 -59 20 -25 34
        -31 63 -31 42 0 91 36 91 67 1 11 6 6 15 -14 27 -62 106 -74 149 -22 l26 31
        26 -31 c44 -53 123 -40 150 24 39 93 -75 168 -147 96 l-29 -29 -29 29 c-49 49
        -125 33 -150 -31 -7 -18 -10 -20 -10 -7 -1 31 -50 67 -92 67 -29 0 -43 -6 -63
        -31z"/>
        <path d="M8587 919 c-11 -6 -25 -26 -33 -45 -37 -87 65 -162 140 -103 14 11
        26 28 26 37 0 11 10 4 31 -21 25 -31 37 -37 68 -37 42 0 91 36 91 67 1 11 6 6
        15 -14 27 -62 106 -74 149 -22 l26 31 26 -31 c21 -25 33 -31 65 -31 55 0 89
        34 89 90 0 84 -91 121 -151 61 l-29 -29 -29 29 c-38 38 -87 39 -125 4 -14 -13
        -26 -32 -27 -42 0 -13 -3 -11 -10 7 -14 37 -49 60 -91 60 -30 0 -42 -6 -67
        -37 -21 -25 -31 -32 -31 -21 0 42 -88 73 -133 47z"/>
        <path d="M443 741 c-56 -15 -84 -69 -63 -122 13 -30 54 -59 85 -59 30 0 75 30
        81 55 l6 25 22 -32 c40 -60 118 -59 155 2 l19 31 6 -25 c3 -14 18 -32 33 -39
        l26 -14 -26 -17 c-33 -23 -51 -74 -38 -110 6 -14 25 -35 43 -46 18 -11 26 -20
        17 -20 -18 0 -53 -36 -63 -64 -11 -31 13 -85 44 -101 53 -28 101 -12 129 43
        22 42 -9 107 -59 125 -13 5 -13 6 1 6 31 2 64 50 64 93 0 34 -6 45 -34 68 -31
        27 -32 28 -12 35 22 7 51 52 51 79 0 50 -46 90 -101 88 -34 -1 -79 -36 -79
        -61 0 -9 -8 -3 -19 15 -11 17 -33 36 -50 42 -42 15 -88 -2 -112 -42 -11 -18
        -19 -24 -19 -15 0 19 -38 55 -65 61 -11 2 -30 2 -42 -1z"/>
        <path d="M1184 743 c-81 -16 -88 -143 -9 -173 18 -6 17 -9 -12 -23 -61 -32
        -62 -120 -1 -157 27 -16 28 -19 10 -24 -69 -22 -73 -134 -5 -165 40 -18 73
        -13 104 18 46 47 34 116 -25 145 -18 9 -24 16 -14 16 26 0 68 57 68 92 0 22
        -10 40 -36 64 -19 19 -30 34 -24 34 19 0 60 52 60 77 0 39 -27 80 -61 92 -18
        6 -32 10 -33 10 -1 -1 -11 -4 -22 -6z"/>
        <path d="M2655 736 c-32 -14 -55 -51 -55 -90 0 -24 41 -76 60 -76 6 0 -5 -15
        -24 -34 -26 -24 -36 -42 -36 -64 0 -35 42 -92 68 -92 10 0 4 -7 -14 -16 -63
        -31 -72 -100 -18 -150 19 -19 30 -34 24 -34 -20 0 -60 -49 -60 -74 0 -86 99
        -132 157 -73 40 39 28 128 -19 143 -10 3 -18 9 -18 14 0 5 8 11 18 14 42 14
        59 101 26 137 -9 10 -25 21 -36 25 -18 5 -17 8 10 24 61 37 60 125 -1 157 -29
        14 -30 17 -12 23 58 22 77 103 34 145 -31 30 -67 37 -104 21z"/>
        <path d="M3043 741 c-33 -9 -61 -36 -69 -67 -9 -34 18 -90 46 -99 21 -7 21 -8
        -11 -35 -28 -23 -34 -34 -34 -68 0 -42 23 -77 60 -93 16 -6 16 -8 3 -8 -21 -1
        -68 -57 -68 -82 0 -28 18 -60 48 -85 l26 -21 -22 -7 c-24 -8 -52 -53 -52 -85
        0 -12 13 -35 28 -52 70 -78 189 -2 148 95 -8 19 -24 37 -35 41 -12 3 -21 10
        -21 15 0 5 9 12 21 15 26 8 52 69 43 98 -9 30 -44 67 -63 67 -9 0 -1 9 17 20
        18 11 37 32 43 46 13 36 -5 87 -38 110 l-26 17 26 13 c31 17 51 71 38 105 -17
        46 -63 71 -108 60z"/>
        <path d="M3415 742 c-27 -5 -55 -31 -66 -61 -13 -34 7 -88 38 -105 l26 -13
        -26 -17 c-33 -23 -51 -74 -38 -110 6 -14 25 -35 43 -46 18 -11 26 -20 17 -20
        -18 0 -53 -36 -63 -64 -17 -50 36 -116 94 -116 50 0 99 64 85 112 -9 30 -44
        68 -64 69 -14 0 -14 1 -1 6 25 9 60 45 60 62 0 10 6 7 17 -9 26 -38 45 -49 81
        -50 43 0 68 14 86 48 9 15 15 21 16 14 0 -7 11 -24 25 -37 37 -38 95 -35 129
        6 l26 31 26 -31 c42 -50 117 -41 148 17 9 15 15 21 16 14 0 -28 48 -62 87 -62
        42 1 63 13 81 47 22 40 14 73 -24 109 -22 21 -30 34 -20 34 22 0 56 49 56 82
        0 42 -17 68 -56 84 -29 12 -39 12 -68 0 -40 -17 -56 -42 -56 -89 0 -33 26 -68
        60 -79 11 -4 8 -9 -12 -18 -15 -7 -33 -26 -41 -42 l-14 -30 -7 26 c-7 29 -51
        56 -91 56 -16 0 -38 -12 -56 -29 l-29 -29 -29 29 c-18 17 -40 29 -56 29 -40 0
        -84 -27 -91 -56 l-7 -26 -14 30 c-30 61 -100 69 -149 16 -22 -23 -34 -30 -34
        -20 0 8 -14 25 -30 38 l-31 22 24 13 c30 15 51 64 43 98 -12 46 -61 77 -111
        67z"/>
        <path d="M6555 736 c-32 -14 -55 -51 -55 -90 0 -24 41 -76 60 -76 6 0 -5 -15
        -24 -34 -26 -24 -36 -42 -36 -64 0 -35 42 -92 68 -92 10 0 4 -7 -14 -16 -63
        -31 -72 -100 -18 -150 19 -19 30 -34 24 -34 -20 0 -60 -49 -60 -74 0 -86 99
        -132 157 -73 40 39 28 128 -19 143 -10 3 -18 9 -18 14 0 5 8 11 18 14 42 14
        59 101 26 137 -9 10 -25 21 -36 25 -18 5 -17 8 10 24 61 37 60 125 -1 157 -29
        14 -30 17 -12 23 58 22 77 103 34 145 -31 30 -67 37 -104 21z"/>
        <path d="M6943 741 c-33 -9 -61 -36 -69 -67 -9 -34 18 -90 46 -99 21 -7 21 -8
        -11 -35 -28 -23 -34 -34 -34 -68 0 -42 23 -77 60 -93 16 -6 16 -8 3 -8 -21 -1
        -68 -57 -68 -82 0 -28 18 -60 48 -85 l26 -21 -22 -7 c-24 -8 -52 -53 -52 -85
        0 -12 13 -35 28 -52 70 -78 189 -2 148 95 -8 19 -24 37 -35 41 -12 3 -21 10
        -21 15 0 5 9 12 21 15 26 8 52 69 43 98 -9 30 -44 67 -63 67 -9 0 -1 9 17 20
        18 11 37 32 43 46 13 36 -5 87 -38 110 l-26 17 26 13 c31 17 51 71 38 105 -17
        46 -63 71 -108 60z"/>
        <path d="M7315 742 c-27 -5 -55 -31 -66 -61 -13 -34 7 -88 38 -105 l26 -13
        -26 -17 c-33 -23 -51 -74 -38 -110 6 -14 25 -35 43 -46 18 -11 26 -20 17 -20
        -18 0 -53 -36 -63 -64 -17 -50 36 -116 94 -116 50 0 99 64 85 112 -9 30 -44
        68 -64 69 -14 0 -14 1 -1 6 25 9 60 45 60 62 0 10 6 7 17 -9 26 -38 45 -49 81
        -50 43 0 68 14 86 48 9 15 15 21 16 14 0 -7 11 -24 25 -37 37 -38 95 -35 129
        6 l26 31 26 -31 c42 -50 117 -41 148 17 9 15 15 21 16 14 0 -28 48 -62 87 -62
        42 1 63 13 81 47 22 40 14 73 -24 109 -22 21 -30 34 -20 34 22 0 56 49 56 82
        0 42 -17 68 -56 84 -29 12 -39 12 -68 0 -40 -17 -56 -42 -56 -89 0 -33 26 -68
        60 -79 11 -4 8 -9 -12 -18 -15 -7 -33 -26 -41 -42 l-14 -30 -7 26 c-7 29 -51
        56 -91 56 -16 0 -38 -12 -56 -29 l-29 -29 -29 29 c-18 17 -40 29 -56 29 -40 0
        -84 -27 -91 -56 l-7 -26 -14 30 c-30 61 -100 69 -149 16 -22 -23 -34 -30 -34
        -20 0 8 -14 25 -30 38 l-31 22 24 13 c30 15 51 64 43 98 -12 46 -61 77 -111
        67z"/>
        <path d="M8413 735 c-57 -25 -71 -93 -29 -142 19 -22 32 -28 66 -28 100 0 126
        132 35 171 -40 16 -32 17 -72 -1z"/>
        <path d="M8583 542 c-72 -57 -36 -162 57 -162 38 0 80 32 80 60 0 8 7 4 17
        -10 26 -38 45 -49 81 -50 43 0 68 14 86 48 9 15 15 21 16 14 0 -7 11 -24 25
        -37 37 -38 95 -35 129 6 35 41 34 83 -3 120 -18 17 -40 29 -56 29 -40 0 -84
        -27 -91 -56 l-7 -26 -14 30 c-30 61 -100 69 -149 16 -21 -22 -34 -30 -34 -20
        0 23 -49 56 -84 56 -17 0 -41 -8 -53 -18z"/>
        <path d="M9139 357 c-47 -36 -51 -97 -10 -138 33 -32 67 -37 110 -14 33 17 41
        33 41 85 0 30 -6 43 -26 59 -30 23 -90 28 -115 8z"/>
        <path d="M222 165 c-54 -45 -42 -124 23 -151 41 -17 86 -4 110 32 l15 24 28
        -31 c22 -24 36 -31 66 -31 40 0 86 32 86 61 0 9 8 3 19 -15 26 -42 72 -58 116
        -40 92 39 65 171 -35 171 -42 0 -90 -34 -90 -64 -1 -9 -7 -2 -14 14 -13 29
        -51 55 -82 55 -27 0 -72 -29 -79 -51 -7 -20 -8 -20 -33 10 -39 46 -88 52 -130
        16z"/>
        <path d="M1343 170 c-52 -31 -57 -97 -11 -140 21 -19 42 -24 83 -20 25 2 65
        39 65 59 0 9 8 3 19 -15 50 -82 171 -50 171 45 0 41 -37 80 -81 87 -28 5 -41
        1 -67 -21 -18 -15 -32 -34 -32 -43 0 -10 -7 -4 -16 14 -26 54 -78 67 -131 34z"/>
        <path d="M3584 180 c-50 -20 -69 -88 -38 -135 36 -54 119 -50 155 9 11 18 19
        24 19 15 0 -25 45 -60 79 -61 39 -1 79 19 87 44 7 23 21 23 28 0 8 -25 48 -45
        87 -44 34 1 79 36 79 61 0 9 8 3 19 -15 50 -82 171 -50 171 45 0 41 -37 80
        -81 87 -28 5 -41 1 -67 -21 -18 -15 -32 -34 -32 -43 0 -10 -7 -3 -16 15 -29
        59 -101 67 -150 18 l-24 -24 -24 24 c-49 49 -121 41 -150 -18 -9 -18 -16 -25
        -16 -15 0 22 -57 68 -83 67 -12 0 -32 -4 -43 -9z"/>
        <path d="M4884 180 c-50 -20 -69 -88 -38 -135 36 -54 119 -50 155 9 11 18 19
        24 19 15 0 -25 45 -60 79 -61 85 -3 134 90 77 147 -49 49 -121 41 -150 -18 -9
        -18 -16 -25 -16 -15 0 22 -57 68 -83 67 -12 0 -32 -4 -43 -9z"/>
        <path d="M7484 180 c-50 -20 -69 -88 -38 -135 36 -54 119 -50 155 9 11 18 19
        24 19 15 0 -25 45 -60 79 -61 39 -1 79 19 87 44 7 23 21 23 28 0 8 -25 48 -45
        87 -44 34 1 79 36 79 61 0 9 8 3 19 -15 50 -82 171 -50 171 45 0 41 -37 80
        -81 87 -28 5 -41 1 -67 -21 -18 -15 -32 -34 -32 -43 0 -10 -7 -3 -16 15 -29
        59 -101 67 -150 18 l-24 -24 -24 24 c-49 49 -121 41 -150 -18 -9 -18 -16 -25
        -16 -15 0 22 -57 68 -83 67 -12 0 -32 -4 -43 -9z"/>
        <path d="M8420 183 c-35 -13 -60 -47 -60 -80 0 -47 16 -72 55 -89 44 -18 90
        -2 116 40 11 18 19 24 19 15 0 -28 46 -61 85 -61 39 0 85 33 85 61 0 9 9 3 21
        -16 40 -62 122 -62 160 1 11 18 19 24 19 15 0 -25 45 -60 79 -61 85 -3 134 90
        77 147 -49 49 -121 41 -150 -18 -9 -18 -16 -25 -16 -15 0 9 -14 28 -32 43 -42
        36 -91 30 -130 -16 -25 -30 -26 -30 -33 -10 -7 22 -52 51 -79 51 -31 0 -69
        -26 -82 -55 -7 -16 -13 -23 -14 -14 -1 37 -79 78 -120 62z"/>
    </g>
</svg>
